PathFileType        4      (X/Y/Z)      Walking.trc         
DataRate	CameraRate	NumFrames	NumMarkers	Units	OrigDataRate	OrigDataStartFrame	OrigNumFrames
100.0	100.0	12	22	mm	100.0	15	84
Frame#	Time	T2			T10			MANU			LASI			RASI			SACR			LTHI			LKNE			LTIB			LANK			LHEE			LTOE			LD1MH			LD5MH			RTHI			RKNE			RTIB			RANK			RHEE			RTOE			RD1MH			RD5MH			
		X1	Y1	Z1	X2	Y2	Z2	X3	Y3	Z3	X4	Y4	Z4	X5	Y5	Z5	X6	Y6	Z6	X7	Y7	Z7	X8	Y8	Z8	X9	Y9	Z9	X10	Y10	Z10	X11	Y11	Z11	X12	Y12	Z12	X13	Y13	Z13	X14	Y14	Z14	X15	Y15	Z15	X16	Y16	Z16	X17	Y17	Z17	X18	Y18	Z18	X19	Y19	Z19	X20	Y20	Z20	X21	Y21	Z21	X22	Y22	Z22	
15	1.38	218.08162953	1101.15697888	-96.90365633	206.68024238	921.85007599	-95.70510283	330.58999503	1074.99006121	-95.77703682	328.81348038	708.39041289	-163.05756427	332.61155115	732.3024282	6.48635175	195.64214469	767.20403519	-82.68222494	312.02764571	423.83598835	-236.12592486	316.2505952	364.38553942	-192.52565529	132.30987742	244.01705949	-229.16764374	58.29856404	199.05147211	-177.96030036	-0.10233109	214.09909968	-133.79656916	84.83814334	69.09480468	-162.66980058	81.77203444	67.89627204	-111.80837897	54.66691184	93.56489425	-197.29801113	341.8692341	446.66620539	61.54095419	351.29075389	371.52008169	2.09367369	300.23027983	139.00496735	17.96160726	293.23359352	57.79871122	-36.02296015	247.61237291	18.66906961	-79.46253912	423.58343103	29.45724048	-63.65103319	409.04809978	23.14148737	-115.61706765	390.641408	13.35718034	-19.7749487	
16	1.39	231.71092688	1103.23024302	-96.38207229	220.14261209	923.94017842	-95.34016011	344.09935378	1076.95668585	-95.65796915	342.72970631	710.91017251	-162.00469136	345.12437127	734.20560808	7.39166551	208.96538585	769.47760184	-82.77154514	336.65652937	428.82803078	-235.87427185	342.14659575	369.37445918	-191.99372522	161.91613532	243.7305076	-229.38645889	88.9528165	196.26422926	-178.40140509	29.52205107	207.70651469	-134.21234966	123.2070803	68.34570118	-164.05689945	120.22118231	66.61410158	-113.18877372	91.65814152	91.0936194	-198.44146216	346.83535868	446.52805478	61.96840953	354.56332877	371.03067883	2.53321052	300.49751163	138.99749334	18.30692522	293.11849485	57.6863474	-35.75017935	247.57863894	18.71780147	-79.33804203	423.38598942	29.49141855	-63.53306373	408.83576318	23.40657233	-115.48173924	390.57358647	13.15493714	-19.71798743	
17	1.4	245.24819213	1105.2069746	-95.77508727	233.51812404	925.92122058	-94.93997633	357.5170911	1078.82908319	-95.48389204	356.65966788	713.39207759	-161.00508981	357.46748772	735.89247657	8.232816	222.22704004	771.63305931	-83.01459706	361.25899109	434.13116658	-235.53394342	367.53499639	374.64324918	-191.34153141	191.6690306	242.65595474	-229.59930012	120.16836745	192.16112046	-178.92771055	59.76147203	199.80289079	-134.80557557	162.38071102	66.82441631	-165.22312515	159.47069308	64.70483219	-114.35993076	129.51716836	87.54024863	-199.45943034	351.6312607	446.37617506	62.1903442	357.66007151	370.57962939	2.77749106	300.81913288	139.01333558	18.49695148	293.06310667	57.61517979	-35.60011267	247.57655971	18.81584597	-79.31129884	423.26920316	29.44739608	-63.43877789	408.73134597	23.53795893	-115.37041953	390.51994993	12.94624902	-19.66770135	
18	1.41	258.71191724	1107.03843832	-95.08400035	246.83471875	927.74395141	-94.51852391	370.8665266	1080.55997846	-95.23626324	370.62718539	715.75986935	-160.06388159	369.66848316	737.32531683	9.00848439	235.45316385	773.61585985	-83.43024564	385.68310956	439.57418516	-235.11178651	392.33070677	380.01342969	-190.60820386	221.54690579	240.77505204	-229.81227645	151.93427372	186.84607227	-179.52526713	90.67748761	190.56505897	-135.5342061	202.15258978	64.65455387	-166.25150774	199.34176284	62.24422318	-115.39713467	168.06012261	83.117895	-200.3933277	356.36200836	446.20559981	62.18705366	360.67288035	370.16884888	2.80481997	301.2122481	139.0651952	18.51225696	293.06963254	57.60249589	-35.59065508	247.60788527	18.96505826	-79.4029211	423.22896406	29.36040963	-63.36493921	408.73794493	23.56180362	-115.28280075	390.47814802	12.7706961	-19.62541035	
19	1.42	272.12118335	1108.68070841	-94.31510464	260.11964432	929.36427532	-94.09206107	384.17152376	1082.10523549	-94.90039796	384.65039181	717.94242874	-159.18831012	381.75688336	738.47339357	9.71701859	248.66811169	775.37838311	-84.03244142	409.75231602	444.97613582	-234.61460808	416.4543806	385.30657524	-189.82905437	251.55924403	238.09175551	-230.02774991	184.2701206	180.45089927	-180.17535213	122.34447178	180.16945594	-136.35558042	242.39116519	61.96999472	-167.21281189	239.71581675	59.31346893	-116.36716937	207.17496366	78.04191077	-201.28225121	361.10306848	446.01075956	61.95199896	363.66431285	369.7947967	2.61029854	301.67886587	139.16052323	18.3482069	293.13636749	57.65891243	-35.72756102	247.66977986	19.1652105	-79.62440801	423.2586828	29.25686528	-63.30818658	408.85287203	23.50394947	-115.21810548	390.44498294	12.6528281	-19.59366798	
20	1.43	285.49498579	1110.09557353	-93.4794047	273.3990227	930.74413239	-93.67827952	397.45574029	1083.42521039	-94.46626781	398.74260352	719.87627063	-158.38688126	393.76390525	739.31356674	10.35666587	261.89479297	776.88117002	-84.82963799	433.27407751	450.15324566	-234.05157447	439.83088084	390.35113177	-189.03374196	281.73907602	234.63491937	-230.24370471	217.22072106	173.13005731	-180.85554664	154.8447854	168.79231694	-137.23524174	283.02727318	58.91078183	-168.14604963	280.52051999	56.00515491	-117.30813483	246.81446696	72.52066793	-202.14999149	365.90120055	445.79043708	61.49409405	366.67257114	369.45237603	2.20707875	302.21488873	139.30288438	18.01672236	293.25940615	57.78907685	-36.00318383	247.75583609	19.41674403	-79.97475745	423.350242	29.15330628	-63.26559466	409.06769442	23.38667975	-115.1750259	390.41662517	12.60225092	-19.57443925	
21	1.44	298.85168834	1111.25117066	-92.59212483	286.69758988	931.85209845	-93.29541631	410.74199035	1084.48593801	-93.92908245	412.91357136	721.50751937	-157.66823561	405.72216847	739.83056136	10.92588977	275.15512438	778.09359978	-85.82448141	456.05062358	454.92585641	-233.43659696	462.3884043	394.98830287	-188.24524927	312.13310308	230.45953112	-230.45330451	250.84726893	165.05655313	-181.54021418	188.26427635	156.6128228	-138.1510401	324.03837995	55.62496214	-169.04642923	321.71565996	52.43234736	-118.21631448	286.98322076	66.75353352	-202.99501869	370.77691341	445.55062454	60.83797911	369.71734434	369.13806409	1.62539438	302.81598226	139.49389238	17.54548925	293.43374868	57.99322544	-36.39714718	247.85796793	19.72290784	-80.43939917	423.49390404	29.05762256	-63.23492032	409.36798844	23.22774463	-115.15174579	390.38869351	12.61612455	-19.5680344	
22	1.45	312.20862994	1112.12236576	-91.67204952	300.03858134	932.66372328	-92.96138071	424.05173774	1085.26011352	-93.2896397	427.17090835	722.79332405	-157.03991855	417.66537436	740.01689465	11.42370726	288.47058445	778.99404839	-87.01373693	477.89145243	459.12522765	-232.78999337	484.05898032	399.0770774	-187.47964176	342.79020449	225.64649873	-230.644604	285.21515686	156.41885804	-182.20034486	222.68711474	143.81778997	-139.09137649	365.43066595	52.27468573	-169.86285779	363.27945045	48.73832323	-119.04268555	327.71962325	60.93482101	-203.78559678	375.72878698	445.3048946	60.02205176	372.80581182	368.85178366	0.90934784	303.47976307	139.73535094	16.97455256	293.65380277	58.26923738	-36.87901745	247.96847552	20.0910596	-80.99179052	423.67767431	28.97125529	-63.21466775	409.73334613	23.04083956	-115.14611365	390.35616705	12.68286644	-19.57296384	
23	1.46	325.581892	1112.69091524	-90.74074112	313.44372492	933.16164171	-92.69294241	437.40472721	1085.72784704	-92.55444118	441.5215021	723.7027207	-156.50721736	429.62796776	739.87250348	11.8499914	301.8627677	779.56961524	-88.3884243	498.62731958	462.6001225	-232.13883256	504.78096883	402.49853648	-186.7465331	373.74910227	220.30097488	-230.80047258	320.37904662	147.41824982	-182.80301378	258.18859517	130.6064282	-140.0481546	407.21945401	49.04369908	-170.50537853	405.19510715	45.10409964	-119.69968626	369.07378003	55.26120097	-204.46116738	380.73995936	445.07257424	59.09446419	375.9384805	368.59741985	0.11180571	304.20509117	140.03127731	16.35078099	293.91347391	58.61487599	-37.41260621	248.08161894	20.53317143	-81.59745497	423.88675987	28.89153706	-63.20398218	410.13821149	22.83690298	-115.15586238	390.31322415	12.78608316	-19.58657043	
24	1.47	338.98621952	1112.94545022	-89.82167885	326.93329903	933.33550484	-92.50501939	450.81875033	1085.87718221	-91.73557823	455.97274957	724.21698939	-156.07221878	441.64480009	739.40414671	12.20569767	315.35383349	779.81553629	-89.93414004	518.12513993	465.22314629	-231.5155879	524.50388514	405.15958589	-186.05008928	405.02608059	214.54921818	-230.8988688	356.36618631	138.26572013	-183.31092566	294.82450837	117.19374295	-141.00662671	449.40835189	46.14257956	-170.86103497	447.43717407	41.75085361	-120.07674033	411.08241288	49.9390452	-204.93989365	385.78667506	444.8754484	58.10766782	379.1147928	368.38218088	-0.71193005	304.990039	140.38955469	15.72111171	294.2061364	59.02995294	-37.96119638	248.19433359	21.06576248	-82.21972553	424.10376973	28.81373551	-63.20231705	410.55399333	22.62575888	-115.17870643	390.2532489	12.9081021	-19.60609106	
25	1.48	352.43507363	1112.88133179	-88.93936003	340.52621225	933.1817847	-92.4100941	464.30953187	1085.704379	-90.85039796	470.53349436	724.32958399	-155.73320826	453.7508078	738.62466962	12.49298525	328.96675386	779.73441494	-91.63154802	536.30276964	466.8968308	-230.95503808	543.19538721	406.99620758	-185.39030983	436.60379825	208.53397519	-230.91363875	393.15937532	129.17749993	-183.68260719	332.61620285	103.81127936	-141.9354107	491.96783208	43.80782302	-170.81494116	489.95708759	38.93454863	-120.06119466	453.74244531	45.18770811	-205.13100833	390.84819519	444.73386983	57.11232522	382.33856812	368.2151571	-1.5108188	305.83018905	140.82304969	15.12571033	294.52476727	59.51819462	-38.4928081	248.30612492	21.7095288	-82.82608382	424.31011997	28.73269573	-63.20885327	410.95256115	22.41769282	-115.21220481	390.16928505	13.03280973	-19.62972281	
26	1.49	365.94077739	1112.50042998	-88.11839892	354.24006263	932.70350553	-92.41777496	477.89071378	1085.2139664	-89.92096199	485.21459356	724.04572957	-155.48448888	465.98071257	737.55221433	12.71521612	342.72528498	779.33539644	-93.45701609	553.14212708	467.55942183	-230.48972493	560.849672	407.97621189	-184.76428632	468.42235824	202.40837282	-230.81597496	430.68133005	120.36842053	-183.87372938	371.53160322	90.7040958	-142.78015983	534.8147072	42.2914584	-170.27223575	532.66797196	36.93074607	-119.56018203	496.98568223	41.2350829	-204.94961271	395.9168334	444.66307443	56.1514846	385.62329069	368.10546978	-2.24423519	306.71842909	141.35013614	14.59218973	294.86243035	60.08865097	-38.98460668	248.41848316	22.48888728	-83.39384916	424.48870675	28.64413507	-63.22177819	411.31071567	22.22455828	-115.25342249	390.05508256	13.14772274	-19.65732634	
